<?xml version="1.0" encoding="UTF-8" standalone="no" ?>
<!DOCTYPE svg PUBLIC "-//W3C//DTD SVG 1.1//EN" "http://www.w3.org/Graphics/SVG/1.1/DTD/svg11.dtd">
<svg xmlns="http://www.w3.org/2000/svg" xmlns:xlink="http://www.w3.org/1999/xlink" version="1.1" width="400" height="400" viewBox="0 0 400 400" xml:space="preserve">
<desc>Created with Fabric.js 3.6.2</desc>
<defs>
</defs>
<g transform="matrix(6.25 0 0 6.25 200 200)" id="_22-Sofa"  >
<path style="stroke: none; stroke-width: 1; stroke-dasharray: none; stroke-linecap: butt; stroke-dashoffset: 0; stroke-linejoin: miter; stroke-miterlimit: 4; fill: rgb(0,0,0); fill-rule: nonzero; opacity: 1;"  transform=" translate(-16, -16)" d="M 31 12 H 29 V 6 a 3 3 0 0 0 -3 -3 H 17 a 2.09 2.09 0 0 0 -1 0.26 A 2.09 2.09 0 0 0 15 3 H 6 A 3 3 0 0 0 3 6 v 6 H 1 a 1 1 0 0 0 -1 1 V 23 a 3 3 0 0 0 3 3 v 2 a 1 1 0 0 0 1 1 H 6 a 1 1 0 0 0 1 -1 V 26 H 25 v 2 a 1 1 0 0 0 1 1 h 2 a 1 1 0 0 0 1 -1 V 26 a 3 3 0 0 0 3 -3 V 13 A 1 1 0 0 0 31 12 Z M 6 23 a 1 1 0 0 1 -1 1 H 3 a 1 1 0 0 1 -1 -1 V 14 H 5 a 1 1 0 0 1 1 1 Z m 1.82 1 A 3 3 0 0 0 8 23 V 20 H 24 v 3 a 3 3 0 0 0 0.18 1 Z M 24 15 v 3 H 8 V 15 a 3 3 0 0 0 -3 -3 V 6 A 1 1 0 0 1 6 5 h 9 v 9 h 2 V 5 h 9 a 1 1 0 0 1 1 1 v 6 A 3 3 0 0 0 24 15 Z m 6 8 a 1 1 0 0 1 -1 1 H 27 a 1 1 0 0 1 -1 -1 V 15 a 1 1 0 0 1 1 -1 h 3 Z" stroke-linecap="round" />
</g>
</svg>