<?xml version="1.0" encoding="UTF-8" standalone="no" ?>
<!DOCTYPE svg PUBLIC "-//W3C//DTD SVG 1.1//EN" "http://www.w3.org/Graphics/SVG/1.1/DTD/svg11.dtd">
<svg xmlns="http://www.w3.org/2000/svg" xmlns:xlink="http://www.w3.org/1999/xlink" version="1.1" width="400" height="400" viewBox="0 0 400 400" xml:space="preserve">
<desc>Created with Fabric.js 3.6.2</desc>
<defs>
</defs>
<g transform="matrix(0.39 0 0 0.39 166.93 169.28)" id="Layer_1"  >
<path style="stroke: none; stroke-width: 1; stroke-dasharray: none; stroke-linecap: butt; stroke-dashoffset: 0; stroke-linejoin: miter; stroke-miterlimit: 4; fill: rgb(0,0,0); fill-rule: nonzero; opacity: 1;"  transform=" translate(-171.35, -177.35)" d="M 171.534 187.347 h -0.362 c -5.523 0 -10 -4.477 -10 -10 s 4.477 -10 10 -10 h 0.362 c 5.523 0 10 4.477 10 10 S 177.057 187.347 171.534 187.347 z" stroke-linecap="round" />
</g>
<g transform="matrix(0.39 0 0 0.39 166.86 184.46)" id="Layer_1"  >
<path style="stroke: none; stroke-width: 1; stroke-dasharray: none; stroke-linecap: butt; stroke-dashoffset: 0; stroke-linejoin: miter; stroke-miterlimit: 4; fill: rgb(0,0,0); fill-rule: nonzero; opacity: 1;"  transform=" translate(-171.17, -216.22)" d="M 171.354 226.22 h -0.363 c -5.523 0 -10 -4.477 -10 -10 s 4.477 -10 10 -10 h 0.363 c 5.523 0 10 4.477 10 10 S 176.876 226.22 171.354 226.22 z" stroke-linecap="round" />
</g>
<g transform="matrix(0.39 0 0 0.39 200.04 169.28)" id="Layer_1"  >
<path style="stroke: none; stroke-width: 1; stroke-dasharray: none; stroke-linecap: butt; stroke-dashoffset: 0; stroke-linejoin: miter; stroke-miterlimit: 4; fill: rgb(0,0,0); fill-rule: nonzero; opacity: 1;"  transform=" translate(-256.09, -177.35)" d="M 256.272 187.347 h -0.363 c -5.523 0 -10 -4.477 -10 -10 s 4.477 -10 10 -10 h 0.363 c 5.522 0 10 4.477 10 10 S 261.795 187.347 256.272 187.347 z" stroke-linecap="round" />
</g>
<g transform="matrix(0.39 0 0 0.39 199.96 184.46)" id="Layer_1"  >
<path style="stroke: none; stroke-width: 1; stroke-dasharray: none; stroke-linecap: butt; stroke-dashoffset: 0; stroke-linejoin: miter; stroke-miterlimit: 4; fill: rgb(0,0,0); fill-rule: nonzero; opacity: 1;"  transform=" translate(-255.91, -216.22)" d="M 256.091 226.22 h -0.363 c -5.523 0 -10 -4.477 -10 -10 s 4.477 -10 10 -10 h 0.363 c 5.522 0 10 4.477 10 10 S 261.613 226.22 256.091 226.22 z" stroke-linecap="round" />
</g>
<g transform="matrix(0.39 0 0 0.39 234.09 169.28)" id="Layer_1"  >
<path style="stroke: none; stroke-width: 1; stroke-dasharray: none; stroke-linecap: butt; stroke-dashoffset: 0; stroke-linejoin: miter; stroke-miterlimit: 4; fill: rgb(0,0,0); fill-rule: nonzero; opacity: 1;"  transform=" translate(-343.28, -177.35)" d="M 343.462 187.347 h -0.364 c -5.522 0 -10 -4.477 -10 -10 s 4.478 -10 10 -10 h 0.364 c 5.522 0 10 4.477 10 10 S 348.984 187.347 343.462 187.347 z" stroke-linecap="round" />
</g>
<g transform="matrix(0.39 0 0 0.39 234.02 184.46)" id="Layer_1"  >
<path style="stroke: none; stroke-width: 1; stroke-dasharray: none; stroke-linecap: butt; stroke-dashoffset: 0; stroke-linejoin: miter; stroke-miterlimit: 4; fill: rgb(0,0,0); fill-rule: nonzero; opacity: 1;"  transform=" translate(-343.1, -216.22)" d="M 343.279 226.22 h -0.362 c -5.522 0 -10 -4.477 -10 -10 s 4.478 -10 10 -10 h 0.362 c 5.522 0 10 4.477 10 10 S 348.802 226.22 343.279 226.22 z" stroke-linecap="round" />
</g>
<g transform="matrix(0.39 0 0 0.39 200 184.46)" id="Layer_1"  >
<path style="stroke: none; stroke-width: 1; stroke-dasharray: none; stroke-linecap: butt; stroke-dashoffset: 0; stroke-linejoin: miter; stroke-miterlimit: 4; fill: rgb(0,0,0); fill-rule: nonzero; opacity: 1;"  transform=" translate(-256, -216.22)" d="M 385.695 297.062 H 126.305 c -5.523 0 -10 -4.477 -10 -10 v -66.482 c 0 -1.698 -1.381 -3.079 -3.079 -3.079 H 95.243 c -5.523 0 -10 -4.477 -10 -10 v -49.044 c 0 -12.726 10.353 -23.079 23.078 -23.079 h 295.357 c 12.726 0 23.078 10.353 23.078 23.079 V 207.5 c 0 5.523 -4.478 10 -10 10 h -17.982 c -1.698 0 -3.079 1.381 -3.079 3.079 v 66.482 C 395.695 292.584 391.218 297.062 385.695 297.062 z M 136.305 277.062 h 239.391 v -56.482 c 0 -12.726 10.354 -23.079 23.079 -23.079 h 7.982 v -39.044 c 0 -1.698 -1.381 -3.079 -3.078 -3.079 H 108.321 c -1.697 0 -3.078 1.381 -3.078 3.079 V 197.5 h 7.982 c 12.726 0 23.079 10.353 23.079 23.079 V 277.062 z" stroke-linecap="round" />
</g>
<g transform="matrix(0.39 0 0 0.39 200 212.13)" id="Layer_1"  >
<path style="stroke: none; stroke-width: 1; stroke-dasharray: none; stroke-linecap: butt; stroke-dashoffset: 0; stroke-linejoin: miter; stroke-miterlimit: 4; fill: rgb(0,0,0); fill-rule: nonzero; opacity: 1;"  transform=" translate(-256, -287.06)" d="M 434.74 376.623 H 77.26 c -12.725 0 -23.078 -10.353 -23.078 -23.079 V 220.579 c 0 -12.726 10.353 -23.079 23.078 -23.079 h 35.966 c 12.726 0 23.079 10.353 23.079 23.079 v 56.482 h 239.391 v -56.482 c 0 -12.726 10.354 -23.079 23.079 -23.079 h 35.966 c 12.726 0 23.078 10.353 23.078 23.079 v 132.965 C 457.818 366.27 447.466 376.623 434.74 376.623 z M 77.26 217.5 c -1.697 0 -3.078 1.381 -3.078 3.079 v 132.965 c 0 1.697 1.381 3.079 3.078 3.079 h 357.48 c 1.697 0 3.078 -1.381 3.078 -3.079 V 220.579 c 0 -1.697 -1.381 -3.079 -3.078 -3.079 h -35.966 c -1.698 0 -3.079 1.381 -3.079 3.079 v 66.482 c 0 5.523 -4.478 10 -10 10 H 126.305 c -5.523 0 -10 -4.477 -10 -10 v -66.482 c 0 -1.697 -1.381 -3.079 -3.079 -3.079 H 77.26 z" stroke-linecap="round" />
</g>
</svg>